<?xml version="1.0" encoding="utf-8"?>
<!-- Generator: Adobe Illustrator 19.2.1, SVG Export Plug-In . SVG Version: 6.00 Build 0)  -->
<svg version="1.1" id="Layer_1" xmlns="http://www.w3.org/2000/svg" xmlns:xlink="http://www.w3.org/1999/xlink" x="0px" y="0px"
	 viewBox="0 0 120 72" enable-background="new 0 0 120 72" xml:space="preserve">
<g>
	<polygon fill="#FFFFFF" points="120,0 0,0 0,72 120,72 120,0 	"/>
</g>
<g>
	<path fill="#F2F2F2" d="M117.8,2.3v67.5H2.3V2.3H117.8 M120,0H0v72h120V0L120,0z"/>
</g>
<g>
	<path fill="#1479BE" d="M94.6,3H28.8v66h65.8V47.2c0.3-0.4,0.4-0.9,0.4-1.4c0-0.7-0.1-1.1-0.4-1.4V3z"/>
	<path fill="#FFFFFF" d="M34.8,31.6l-1.3-3.1l-1.3,3.1H34.8z M62.6,30.3c-0.3,0.1-0.6,0.2-0.9,0.2h-2.3v-1.7h2.3
		c0.3,0,0.7,0,0.9,0.1c0.2,0.1,0.4,0.4,0.4,0.7C63,29.9,62.9,30.2,62.6,30.3 M78.7,31.6l-1.3-3.1l-1.3,3.1H78.7z M48.8,34.9h-1.9
		l0-6l-2.7,6h-1.6l-2.7-6.1v6.1h-3.8l-0.7-1.7h-3.8l-0.7,1.7h-2l3.3-7.7h2.7l3.1,7.3v-7.3h3l2.4,5.3l2.2-5.3h3.1V34.9z M56.3,34.9
		h-6.2v-7.7h6.2v1.6H52v1.4h4.2v1.6l-4.2,0v1.5h4.3V34.9z M65.1,29.3c0,1.2-0.8,1.9-1.3,2.1c0.4,0.2,0.7,0.4,0.9,0.7
		c0.3,0.4,0.3,0.7,0.3,1.4v1.5h-1.9l0-1c0-0.5,0-1.1-0.3-1.5c-0.3-0.3-0.7-0.3-1.3-0.3h-2v2.8h-1.8v-7.7h4.2c0.9,0,1.6,0,2.2,0.4
		C64.7,27.9,65.1,28.4,65.1,29.3 M68,34.9h-1.9v-7.7H68V34.9z M89.9,34.9h-2.6l-3.5-5.8v5.8H80l-0.7-1.7h-3.9l-0.7,1.7h-2.2
		c-0.9,0-2-0.2-2.7-0.9c-0.7-0.7-1-1.5-1-3c0-1.1,0.2-2.2,1-3c0.6-0.6,1.5-0.9,2.8-0.9h1.8v1.7h-1.7c-0.7,0-1.1,0.1-1.4,0.5
		c-0.3,0.3-0.5,0.9-0.5,1.8c0,0.8,0.2,1.4,0.5,1.8c0.3,0.3,0.8,0.4,1.3,0.4h0.8l2.6-6.1h2.8l3.1,7.3v-7.3h2.8l3.2,5.4v-5.4h1.9V34.9
		z M28.8,36.4H32l0.7-1.7h1.6l0.7,1.7h6.2v-1.3l0.6,1.3H45l0.5-1.3v1.3H61v-2.8h0.3c0.2,0,0.3,0,0.3,0.4v2.4h8v-0.7
		c0.6,0.4,1.6,0.7,3,0.7h3.4l0.7-1.7h1.6l0.7,1.7h6.5v-1.6l1,1.6h5.2V25.6h-5.1v1.3l-0.7-1.3h-5.3v1.3l-0.7-1.3h-7.1
		c-1.2,0-2.2,0.2-3.1,0.6v-0.6h-4.9v0.6c-0.5-0.5-1.3-0.6-2.1-0.6H44.6l-1.2,2.8l-1.2-2.8h-5.6v1.3l-0.6-1.3h-4.8l-2.2,5.1V36.4z"/>
	<path fill="#FFFFFF" d="M94.6,42.1h-3.4c-0.3,0-0.6,0-0.7,0.1c-0.2,0.1-0.3,0.3-0.3,0.6c0,0.3,0.2,0.5,0.4,0.6
		c0.2,0.1,0.4,0.1,0.7,0.1l1,0c1,0,1.7,0.2,2.1,0.6c0.1,0.1,0.1,0.1,0.2,0.2V42.1z M94.6,47.2c-0.5,0.7-1.3,1-2.5,1h-3.6v-1.7h3.6
		c0.4,0,0.6,0,0.7-0.2c0.1-0.1,0.2-0.3,0.2-0.5c0-0.2-0.1-0.4-0.2-0.5c-0.1-0.1-0.3-0.2-0.6-0.2c-1.7-0.1-3.9,0.1-3.9-2.4
		c0-1.1,0.7-2.3,2.6-2.3h3.7v-1.5h-3.4c-1,0-1.8,0.2-2.3,0.6v-0.6h-5.1c-0.8,0-1.7,0.2-2.2,0.6v-0.6h-9v0.6
		c-0.7-0.5-1.9-0.6-2.5-0.6h-6v0.6c-0.6-0.5-1.8-0.6-2.6-0.6h-6.7l-1.5,1.7l-1.4-1.7h-10v10.8h9.8l1.6-1.7l1.5,1.7h6v-2.5h0.6
		c0.8,0,1.7,0,2.6-0.4v2.9h5v-2.8h0.2c0.3,0,0.3,0,0.3,0.3v2.5h15.1c1,0,1.9-0.2,2.5-0.7v0.7h4.8c1,0,2-0.1,2.7-0.5V47.2z
		 M87.2,44.1c0.4,0.4,0.6,0.8,0.6,1.6c0,1.7-1,2.4-2.9,2.4h-3.6v-1.7h3.6c0.4,0,0.6,0,0.8-0.2c0.1-0.1,0.2-0.3,0.2-0.5
		c0-0.2-0.1-0.4-0.2-0.5c-0.1-0.1-0.3-0.2-0.7-0.2c-1.7-0.1-3.9,0.1-3.9-2.4c0-1.1,0.7-2.3,2.6-2.3h3.7v1.6H84c-0.3,0-0.6,0-0.7,0.1
		c-0.2,0.1-0.3,0.3-0.3,0.6c0,0.3,0.2,0.5,0.4,0.6c0.2,0.1,0.4,0.1,0.7,0.1l1,0C86.1,43.5,86.8,43.7,87.2,44.1 M70.5,43.6
		c-0.2,0.1-0.6,0.2-0.9,0.2h-2.2v-1.7h2.3c0.3,0,0.7,0,0.9,0.1c0.2,0.1,0.4,0.4,0.4,0.7C70.9,43.2,70.8,43.5,70.5,43.6 M71.7,44.6
		c0.4,0.2,0.7,0.4,0.9,0.7c0.3,0.4,0.3,0.7,0.3,1.4v1.5H71v-1c0-0.5,0-1.1-0.3-1.5c-0.3-0.3-0.7-0.4-1.4-0.4h-2v2.8h-1.9v-7.7h4.3
		c0.9,0,1.6,0,2.2,0.4c0.6,0.3,0.9,0.8,0.9,1.7C73,43.8,72.2,44.4,71.7,44.6 M74,40.5h6.2v1.6h-4.3v1.4h4.2v1.6h-4.2v1.5l4.3,0v1.6
		H74V40.5z M61.5,44h-2.4v-2h2.4c0.7,0,1.1,0.3,1.1,0.9C62.7,43.7,62.2,44,61.5,44 M57.3,47.5l-2.8-3.2l2.8-3V47.5z M50,46.6h-4.5
		v-1.5h4.1v-1.6h-4.1v-1.4h4.6l2,2.3L50,46.6z M64.7,43c0,2.1-1.6,2.6-3.2,2.6h-2.3v2.6h-3.6l-2.3-2.6l-2.4,2.6h-7.3v-7.7H51
		l2.3,2.5l2.4-2.5h5.9C63,40.5,64.7,40.9,64.7,43"/>
	<path fill="#047CC0" d="M27.8,67.5c0,0.7-0.5,1.3-1.3,1.3c-0.7,0-1.3-0.6-1.3-1.3c0-0.7,0.5-1.3,1.3-1.3
		C27.3,66.2,27.8,66.8,27.8,67.5 M28,67.5c0-0.8-0.7-1.5-1.5-1.5c-0.8,0-1.5,0.7-1.5,1.5c0,0.8,0.7,1.5,1.5,1.5
		C27.4,69,28,68.3,28,67.5 M26.9,67.2c0-0.2-0.1-0.2-0.2-0.2h-0.4v0.4h0.4C26.8,67.4,26.9,67.4,26.9,67.2 M27.2,68.2h-0.3
		c0-0.1,0-0.3,0-0.4c0-0.1,0-0.2-0.2-0.2h-0.4l0,0.6H26v-1.4h0.7c0.2,0,0.5,0.1,0.5,0.4c0,0.2-0.1,0.3-0.2,0.3
		c0.1,0,0.1,0.1,0.1,0.3l0,0.2C27.1,68.1,27.1,68.1,27.2,68.2L27.2,68.2z"/>
</g>
</svg>
