<?xml version="1.0" encoding="utf-8"?>
<!-- Generator: Adobe Illustrator 19.2.1, SVG Export Plug-In . SVG Version: 6.00 Build 0)  -->
<svg version="1.1" id="Layer_1" xmlns="http://www.w3.org/2000/svg" xmlns:xlink="http://www.w3.org/1999/xlink" x="0px" y="0px"
	 viewBox="0 0 120 72" enable-background="new 0 0 120 72" xml:space="preserve">
<g>
	<polygon fill="#FFFFFF" points="120,0 0,0 0,72 120,72 120,0 	"/>
</g>
<g>
	<path fill="#F2F2F2" d="M117.8,2.3v67.5H2.3V2.3H117.8 M120,0H0v72h120V0L120,0z"/>
</g>
<g id="Discover_1_">
	<path fill="#F48120" d="M118,41.1c0,0-28.3,19.9-80,28.9h80V41.1z"/>
	<path fill="#231F20" d="M14.7,21.5h-4.6v16.1h4.6c2.4,0,4.2-0.6,5.8-1.9c1.8-1.5,2.9-3.8,2.9-6.2C23.4,24.8,19.9,21.5,14.7,21.5z
		 M18.4,33.6c-1,0.9-2.3,1.3-4.3,1.3h-0.8V24.2h0.8c2,0,3.3,0.4,4.3,1.3c1.1,1,1.7,2.5,1.7,4C20.2,31.1,19.5,32.7,18.4,33.6z"/>
	<rect x="24.9" y="21.5" fill="#231F20" width="3.1" height="16.1"/>
	<path fill="#231F20" d="M35.7,27.7c-1.9-0.7-2.4-1.2-2.4-2c0-1,1-1.8,2.3-1.8c0.9,0,1.7,0.4,2.5,1.3l1.6-2.2
		c-1.4-1.2-3-1.8-4.7-1.8c-2.9,0-5,2-5,4.6c0,2.2,1,3.4,4,4.4c1.2,0.4,1.9,0.7,2.2,0.9c0.6,0.4,0.9,1,0.9,1.7c0,1.3-1,2.3-2.4,2.3
		c-1.5,0-2.7-0.8-3.4-2.2l-2,2c1.4,2.1,3.2,3.1,5.6,3.1c3.3,0,5.6-2.2,5.6-5.3C40.3,30.2,39.3,29,35.7,27.7z"/>
	<path fill="#231F20" d="M41.3,29.6c0,4.7,3.7,8.4,8.5,8.4c1.4,0,2.5-0.3,3.9-0.9v-3.7c-1.3,1.3-2.4,1.8-3.8,1.8
		c-3.2,0-5.4-2.3-5.4-5.6c0-3.1,2.3-5.5,5.3-5.5c1.5,0,2.6,0.5,3.9,1.8v-3.7c-1.4-0.7-2.5-1-3.9-1C45.2,21.1,41.3,24.9,41.3,29.6z"
		/>
	<polygon fill="#231F20" points="78.7,32.3 74.4,21.5 71,21.5 77.8,38.1 79.5,38.1 86.5,21.5 83.1,21.5 	"/>
	<polygon fill="#231F20" points="87.9,37.6 96.9,37.6 96.9,34.9 91.1,34.9 91.1,30.6 96.6,30.6 96.6,27.8 91.1,27.8 91.1,24.2 
		96.9,24.2 96.9,21.5 87.9,21.5 	"/>
	<path fill="#231F20" d="M109.3,26.3c0-3-2.1-4.8-5.7-4.8h-4.7v16.1h3.1v-6.5h0.4l4.4,6.5h3.9l-5.1-6.8
		C108,30.4,109.3,28.7,109.3,26.3z M103,28.9h-0.9v-4.9h1c2,0,3,0.8,3,2.4C106.1,28.1,105,28.9,103,28.9z"/>
	<g>
		<g>
			<linearGradient id="SVGID_1_" gradientUnits="userSpaceOnUse" x1="67.7931" y1="36.5117" x2="61.851" y2="27.2082">
				<stop  offset="0" style="stop-color:#F89F20"/>
				<stop  offset="0.2502" style="stop-color:#F79A20"/>
				<stop  offset="0.5331" style="stop-color:#F68D20"/>
				<stop  offset="0.6196" style="stop-color:#F58720"/>
				<stop  offset="0.7232" style="stop-color:#F48120"/>
				<stop  offset="1" style="stop-color:#F37521"/>
			</linearGradient>
			<circle fill="url(#SVGID_1_)" cx="63.4" cy="29.6" r="8.6"/>
			<linearGradient id="SVGID_2_" gradientUnits="userSpaceOnUse" x1="66.8545" y1="36.3852" x2="58.1699" y2="19.4109">
				<stop  offset="0" style="stop-color:#F58720;stop-opacity:0"/>
				<stop  offset="0.3587" style="stop-color:#E16F27;stop-opacity:0.2704"/>
				<stop  offset="0.703" style="stop-color:#D4602C;stop-opacity:0.5299"/>
				<stop  offset="0.9816" style="stop-color:#D05B2E;stop-opacity:0.74"/>
			</linearGradient>
			<circle opacity="0.65" fill="url(#SVGID_2_)" cx="63.4" cy="29.6" r="8.6"/>
		</g>
	</g>
	<g>
		<path fill="#231F20" d="M111.3,22.1c0-0.3-0.2-0.4-0.5-0.4h-0.5v1.4h0.3v-0.5l0.4,0.5h0.4l-0.5-0.6
			C111.2,22.5,111.3,22.3,111.3,22.1z M110.7,22.3L110.7,22.3l-0.1-0.4h0.1c0.2,0,0.3,0.1,0.3,0.2C111,22.2,110.9,22.3,110.7,22.3z"
			/>
		<path fill="#231F20" d="M110.9,21.2c-0.7,0-1.2,0.5-1.2,1.2c0,0.7,0.6,1.2,1.2,1.2c0.7,0,1.2-0.6,1.2-1.2
			C112.1,21.7,111.5,21.2,110.9,21.2z M110.9,23.4c-0.5,0-1-0.5-1-1c0-0.6,0.4-1,1-1c0.5,0,1,0.5,1,1
			C111.8,22.9,111.4,23.4,110.9,23.4z"/>
	</g>
</g>
</svg>
