<svg xmlns="http://www.w3.org/2000/svg" viewBox="0 0 120 72"><defs><style>.cls-1{fill:#fff;}.cls-2{fill:#f2f2f2;}.cls-3{fill:none;}.cls-4{fill:#ff5f00;}.cls-5{fill:#eb001b;}.cls-6{fill:#f79e1b;}</style></defs><title>PI-CC-icons_300-Large-Mastercard</title><g id="Instructions"><g id="_120x72" data-name="120x72"><polygon class="cls-1" points="120 0 0 0 0 72 120 72 120 0 120 0"/><path class="cls-2" d="M117.75,2.25v67.5H2.25V2.25h115.5M120,0H0V72H120V0Z"/></g></g><g id="Icons"><rect class="cls-3" width="120" height="72"/><rect class="cls-4" x="45.521" y="14.099" width="26.721" height="43.643"/><path class="cls-5" d="M48.273,35.925a27.707,27.707,0,0,1,10.6-21.818,27.754,27.754,0,1,0,0,43.643A27.709,27.709,0,0,1,48.273,35.925Z"/><path class="cls-6" d="M101.129,53.124V52.23h.385v-.185H100.6v.185h.362v.894Zm1.78,0V52.045h-.277l-.324.771-.324-.771h-.277v1.079h.2v-.817l.3.7h.208l.3-.7v.817Z"/><path class="cls-6" d="M103.781,35.925A27.754,27.754,0,0,1,58.873,57.742a27.751,27.751,0,0,0,0-43.643,27.755,27.755,0,0,1,44.908,21.818Z"/></g></svg>