<?xml version="1.0" encoding="utf-8"?>
<!-- Generator: Adobe Illustrator 25.0.0, SVG Export Plug-In . SVG Version: 6.00 Build 0)  -->
<svg version="1.1" id="Layer_1" xmlns="http://www.w3.org/2000/svg" xmlns:xlink="http://www.w3.org/1999/xlink" x="0px" y="0px"
	 viewBox="0 0 1920 1112.5" style="enable-background:new 0 0 1920 1112.5;" xml:space="preserve">
<rect fill="#FFFFFF" width="1920" height="1112.5"/>
<g id="Layer_2_1_">
	<g id="Layer_1-2">
		<path fill="#1434CB" d="M734.8,291.2L513.6,818.8H369.4L260.5,397.7c-6.6-25.9-12.3-35.4-32.4-46.4c-32.8-17.8-87-34.5-134.6-44.9
			l3.2-15.3h232.2c29.6,0,56.2,19.7,62.9,53.8l57.5,305.3l142-359.1H734.8z M1300.1,646.5c0.6-139.3-192.6-146.9-191.2-209.1
			c0.4-18.9,18.5-39.1,57.9-44.2c19.6-2.6,73.4-4.5,134.6,23.6l24-111.9c-32.9-12-75.1-23.4-127.7-23.4
			c-134.9,0-229.8,71.7-230.6,174.4c-0.9,76,67.7,118.3,119.5,143.6c53.2,25.8,71,42.5,70.8,65.6c-0.4,35.4-42.4,51-81.7,51.6
			c-68.6,1.1-108.4-18.6-140.1-33.3L910.7,799c31.9,14.6,90.8,27.4,151.8,28C1205.8,827,1299.6,756.2,1300.1,646.5 M1656.3,818.8
			h126.2l-110.2-527.6h-116.5c-25.5-0.2-48.5,15.1-58.1,38.7l-204.8,488.9h143.3l28.5-78.8h175.1L1656.3,818.8z M1504,631.8
			l71.8-198.1l41.3,198.1L1504,631.8z M929.8,291.2L816.9,818.8H680.4l112.9-527.6H929.8z"/>
	</g>
</g>
</svg>
